<svg id="Capa_1" enable-background="new 0 0 512 512" height="512" viewBox="0 0 512 512" width="512" xmlns="http://www.w3.org/2000/svg"><g><path d="m469.5 12h-427c-23.435 0-42.5 19.1-42.5 42.576v309.969c0 23.476 19.065 42.576 42.5 42.576h125.808l-16.527 32.865h-24.771c-16.517 0-29.955 13.461-29.955 30.007s13.438 30.007 29.955 30.007h205.479c4.142 0 7.5-3.358 7.5-7.5s-3.358-7.5-7.5-7.5h-205.479c-8.246 0-14.955-6.732-14.955-15.007s6.709-15.007 14.955-15.007h259.478c8.246 0 14.955 6.732 14.955 15.007s-6.71 15.007-14.956 15.007h-18.487c-4.142 0-7.5 3.358-7.5 7.5s3.358 7.5 7.5 7.5h18.487c16.517 0 29.955-13.461 29.955-30.007s-13.438-30.007-29.955-30.007h-25.774l-16.528-32.865h125.315c23.435 0 42.5-19.1 42.5-42.576v-309.969c0-23.476-19.065-42.576-42.5-42.576zm-125.576 427.986h-175.353l16.527-32.865h142.298zm153.076-75.441c0 15.205-12.336 27.576-27.5 27.576h-427c-15.164 0-27.5-12.371-27.5-27.576v-309.969c0-15.205 12.336-27.576 27.5-27.576h427c15.164 0 27.5 12.371 27.5 27.576z"/><path d="m455.06 42.486h-319.06c-4.142 0-7.5 3.358-7.5 7.5s3.358 7.5 7.5 7.5h319.06c6.583 0 11.94 5.375 11.94 11.982v279.724c0 6.607-5.356 11.982-11.94 11.982h-400.12c-6.583 0-11.94-5.375-11.94-11.982v-279.724c0-6.607 5.356-11.982 11.94-11.982h46.06c4.142 0 7.5-3.358 7.5-7.5s-3.358-7.5-7.5-7.5h-46.06c-14.855 0-26.94 12.104-26.94 26.982v279.724c0 14.878 12.085 26.982 26.94 26.982h400.12c14.854 0 26.94-12.104 26.94-26.982v-279.724c0-14.878-12.085-26.982-26.94-26.982z"/><path d="m223.197 305.33c9.229 0 17.579-5.464 21.273-13.92l63.589-145.584c5.12-11.725-.252-25.431-11.979-30.554-11.726-5.117-25.43.257-30.551 11.978l-63.589 145.583c-5.121 11.725.252 25.431 11.979 30.554 2.954 1.289 6.075 1.943 9.278 1.943zm-7.51-26.493 63.589-145.583c1.346-3.08 4.368-4.92 7.533-4.92 1.094 0 2.206.22 3.271.685 4.146 1.811 6.045 6.657 4.235 10.803l-63.589 145.583c-1.307 2.991-4.262 4.924-7.528 4.924-1.125 0-2.229-.232-3.275-.689-4.147-1.81-6.047-6.657-4.236-10.803z"/><path d="m86.492 201.166c-9.046 9.047-9.046 23.769 0 32.816l58.892 58.892c4.382 4.382 10.209 6.796 16.408 6.796s12.026-2.414 16.409-6.796c9.046-9.047 9.046-23.769 0-32.816l-42.484-42.483 41.699-41.699c9.046-9.047 9.046-23.769 0-32.816-9.047-9.048-23.769-9.048-32.817 0l-15.235 15.235c-2.929 2.929-2.929 7.678 0 10.606 2.929 2.93 7.678 2.929 10.606 0l15.235-15.235c3.199-3.2 8.405-3.2 11.604-.001 3.199 3.2 3.199 8.405 0 11.604l-47.002 47.001c-1.407 1.406-2.197 3.314-2.197 5.303s.79 3.897 2.197 5.303l47.787 47.786c3.199 3.2 3.199 8.405 0 11.604-3.053 3.182-8.55 3.182-11.604 0l-58.892-58.892c-3.199-3.199-3.199-8.404 0-11.604l18.086-18.087c2.929-2.929 2.929-7.678 0-10.606-2.929-2.929-7.678-2.929-10.606 0z"/><path d="m331.8 292.875c4.523 4.523 10.465 6.785 16.408 6.784 5.942 0 11.884-2.261 16.408-6.785l22.045-22.045c2.929-2.929 2.929-7.678 0-10.606-2.929-2.929-7.678-2.929-10.606 0l-22.044 22.044c-3.2 3.199-8.405 3.199-11.604.001-3.199-3.2-3.199-8.405 0-11.604l47.788-47.787c1.407-1.406 2.197-3.314 2.197-5.303s-.79-3.897-2.197-5.303l-47.002-47.001c-3.199-3.2-3.199-8.405 0-11.604s8.405-3.199 11.604 0l58.106 58.107c3.199 3.199 3.199 8.404 0 11.604l-12.063 12.063c-2.929 2.929-2.929 7.678 0 10.606 2.929 2.929 7.678 2.929 10.606 0l12.063-12.063c9.046-9.047 9.046-23.769 0-32.816l-58.106-58.107c-9.047-9.046-23.769-9.047-32.817.001-9.046 9.047-9.046 23.769 0 32.816l41.699 41.698-42.484 42.484c-9.048 9.046-9.048 23.768-.001 32.816z"/></g></svg>