<svg id="Layer_1" enable-background="new 0 0 512 512" height="512" viewBox="0 0 512 512" width="512" xmlns="http://www.w3.org/2000/svg"><g><path d="m304.7 432.785v-59.386h-110.695v59.386h38.355c4.139 0 7.512 3.345 7.512 7.512 0 4.139-3.373 7.483-7.512 7.483h-83.028c-3.571 0-6.831 1.475-9.212 3.828-2.354 2.381-3.827 5.612-3.827 9.184s1.474 6.831 3.827 9.184c2.381 2.381 5.641 3.855 9.212 3.855h200.043c3.572 0 6.832-1.474 9.185-3.855 2.381-2.353 3.827-5.612 3.827-9.184s-1.446-6.803-3.827-9.184c-2.353-2.353-5.612-3.828-9.185-3.828h-83.027c-4.139 0-7.512-3.345-7.512-7.483 0-4.167 3.373-7.512 7.512-7.512zm67.861-234.74c6.095 0 11.595 2.495 15.592 6.491 3.997 3.997 6.463 9.496 6.463 15.59v3.175h73.644c4.14 0 7.513 3.345 7.513 7.483 0 4.167-3.373 7.513-7.513 7.513h-73.644v3.175c0 6.066-2.466 11.593-6.463 15.59s-9.497 6.463-15.592 6.463c-6.066 0-11.594-2.466-15.591-6.463-3.996-3.997-6.463-9.524-6.463-15.59v-3.175h-73.645c-4.139 0-7.483-3.345-7.483-7.513 0-4.138 3.345-7.483 7.483-7.483h73.645v-3.175c0-6.094 2.467-11.594 6.463-15.59 3.998-3.996 9.525-6.491 15.591-6.491zm4.99 17.093c-1.275-1.276-3.062-2.069-4.989-2.069-1.928 0-3.684.794-4.961 2.069-1.304 1.276-2.098 3.062-2.098 4.989v21.346c0 1.927.794 3.713 2.098 4.989 1.276 1.275 3.033 2.069 4.961 2.069s3.714-.794 4.989-2.069 2.069-3.061 2.069-4.989v-21.346c0-1.927-.794-3.713-2.069-4.989zm-64.857-148.026c6.094 0 11.594 2.494 15.59 6.491 3.997 3.997 6.491 9.496 6.491 15.59v3.175h133.485c4.14 0 7.513 3.345 7.513 7.484 0 4.138-3.373 7.512-7.513 7.512h-133.485v3.175c0 6.066-2.494 11.594-6.491 15.59-3.996 3.997-9.496 6.463-15.59 6.463-6.066 0-11.565-2.466-15.563-6.463-3.997-3.997-6.491-9.524-6.491-15.59v-3.175h-13.776c-4.139 0-7.483-3.374-7.483-7.512 0-4.139 3.345-7.484 7.483-7.484h13.776v-3.175c0-6.094 2.494-11.594 6.491-15.59 3.998-3.997 9.497-6.491 15.563-6.491zm4.989 17.093c-1.275-1.275-3.033-2.069-4.988-2.069-1.928 0-3.686.794-4.961 2.069-1.304 1.275-2.098 3.033-2.098 4.989v21.346c0 1.927.794 3.685 2.098 4.989 1.275 1.276 3.033 2.069 4.961 2.069 1.955 0 3.713-.793 4.988-2.069 1.275-1.304 2.098-3.062 2.098-4.989v-21.347c-.001-1.955-.823-3.713-2.098-4.988zm116.363 48.387c6.066 0 11.594 2.466 15.591 6.463s6.463 9.524 6.463 15.591v3.175h12.16c4.14 0 7.513 3.373 7.513 7.512s-3.373 7.483-7.513 7.483h-12.16v3.203c0 6.066-2.466 11.594-6.463 15.562-3.997 3.998-9.524 6.492-15.591 6.492-6.065 0-11.594-2.495-15.591-6.492-3.996-3.968-6.463-9.496-6.463-15.562v-3.203h-135.129c-4.139 0-7.483-3.345-7.483-7.483 0-4.139 3.345-7.512 7.483-7.512h135.129v-3.175c0-6.066 2.467-11.594 6.463-15.591 3.997-3.996 9.525-6.463 15.591-6.463zm4.989 17.066c-1.304-1.276-3.062-2.07-4.989-2.07s-3.685.793-4.989 2.07c-1.275 1.304-2.068 3.061-2.068 4.989v21.373c0 1.928.793 3.685 2.068 4.96 1.305 1.304 3.062 2.098 4.989 2.098s3.686-.793 4.989-2.098c1.275-1.275 2.069-3.033 2.069-4.96v-21.373c0-1.928-.794-3.686-2.069-4.989zm-233.124 88.64v14.23h27.213v-14.23zm-66.955 14.23v-14.23h-79.143v14.23zm15.024-14.23v14.23h36.934v-14.23zm-101.679-14.996h188.336c4.138 0 7.483 3.345 7.483 7.483v29.254c0 4.139-3.346 7.512-7.483 7.512-62.789 0-125.549 0-188.336 0-4.139 0-7.483-3.373-7.483-7.512v-29.254c-.001-4.138 3.344-7.483 7.483-7.483zm106.952-88.612-16.526-9.553-16.498-9.496v38.098l16.498-9.525c.142-.085.255-.142.396-.227zm18.595-6.52c1.134.652 2.126 1.587 2.835 2.806 2.041 3.572.822 8.136-2.75 10.177-18.34 10.602-36.68 21.175-54.993 31.777-1.219.793-2.636 1.275-4.195 1.275-4.139 0-7.512-3.345-7.512-7.483v-64.064c0-5.669 6.236-9.382 11.254-6.463 18.453 10.659 36.908 21.317 55.361 31.975zm-48.359 63.072c4.139 0 7.483 3.374 7.483 7.512 0 4.139-3.345 7.512-7.483 7.512h-62.619c-6.065 0-11.593-2.494-15.59-6.491s-6.463-9.497-6.463-15.591v-99.015c0-6.066 2.466-11.594 6.463-15.563 3.997-3.997 9.524-6.492 15.59-6.492h159.196c6.066 0 11.594 2.495 15.59 6.492 3.997 3.969 6.464 9.496 6.464 15.563v99.015c0 6.095-2.467 11.594-6.464 15.591-3.996 3.997-9.523 6.491-15.59 6.491h-62.618c-4.139 0-7.484-3.373-7.484-7.512s3.346-7.512 7.484-7.512h62.618c1.928 0 3.685-.794 4.988-2.069 1.276-1.275 2.069-3.033 2.069-4.989v-99.015c0-1.928-.793-3.686-2.069-4.961-1.304-1.304-3.061-2.098-4.988-2.098h-159.196c-1.927 0-3.685.794-4.988 2.098-1.276 1.275-2.069 3.033-2.069 4.961v99.015c0 1.956.793 3.714 2.069 4.989 1.304 1.275 3.062 2.069 4.988 2.069zm110.835 147.687c-4.139 0-7.512-3.374-7.512-7.512s3.373-7.483 7.512-7.483h31.352c4.167 0 7.512 3.345 7.512 7.483 0 4.139-3.345 7.512-7.512 7.512zm271.676-41.982v30.473c0 12.671-5.159 24.151-13.493 32.485-8.334 8.335-19.814 13.494-32.458 13.494h-146.354v59.386h29.679c7.711 0 14.712 3.147 19.786 8.221s8.249 12.076 8.249 19.786c0 7.711-3.175 14.74-8.249 19.814s-12.075 8.221-19.786 8.221h-200.043c-7.71 0-14.74-3.147-19.814-8.221-5.075-5.074-8.222-12.103-8.222-19.814 0-7.71 3.146-14.712 8.222-19.786 5.073-5.074 12.075-8.221 19.814-8.221h29.679v-59.386h-133.031c-12.644 0-24.152-5.159-32.486-13.494-8.334-8.334-13.493-19.814-13.493-32.485v-30.473-33.987c0-4.139 3.374-7.484 7.512-7.484 4.139 0 7.483 3.345 7.483 7.484v26.476h482.01v-186.324c0-4.139 3.373-7.483 7.512-7.483s7.483 3.344 7.483 7.483zm-14.995 30.473v-22.989h-482.01v22.989c0 8.532 3.487 16.271 9.1 21.883 5.641 5.613 13.38 9.1 21.885 9.1h420.069c8.505 0 16.244-3.487 21.857-9.1 5.612-5.612 9.099-13.351 9.099-21.883zm-482.01-98.421c0 4.139-3.345 7.484-7.483 7.484s-7.512-3.346-7.512-7.484v-159.846c0-12.643 5.159-24.152 13.493-32.486s19.843-13.493 32.486-13.493h420.069c12.644 0 24.124 5.188 32.458 13.493 8.335 8.334 13.494 19.843 13.494 32.486 0 4.138-3.345 7.483-7.483 7.483s-7.512-3.345-7.512-7.483c0-8.505-3.487-16.244-9.1-21.884-5.612-5.612-13.352-9.099-21.857-9.099h-420.069c-8.505 0-16.244 3.487-21.885 9.099-5.612 5.641-9.1 13.379-9.1 21.884v159.846z"/></g></svg>